<svg xmlns="http://www.w3.org/2000/svg" viewBox="0 0 512 512"><defs><linearGradient id="g" x1="0" y1="0" x2="1" y2="1"><stop stop-color="#0757ff"/><stop offset="1" stop-color="#36a2ff"/></linearGradient></defs><rect width="512" height="512" rx="120" fill="url(#g)"/><circle cx="256" cy="256" r="145" fill="none" stroke="#fff" stroke-opacity=".2" stroke-width="28"/><path d="M205 138h112c55 0 91 30 91 76 0 29-16 51-42 63 32 11 50 35 50 67 0 50-39 80-100 80H205V138zm57 48v72h49c25 0 39-14 39-36 0-23-15-36-41-36h-47zm0 119v71h53c29 0 45-13 45-36 0-23-17-35-47-35h-51z" fill="#fff"/></svg>
